<svg width="24" height="24" viewBox="0 0 24 24" fill="none" xmlns="http://www.w3.org/2000/svg">
    <path d="M23.7602 6.44464L22.5579 5.2424C22.3977 5.08186 22.2131 5.00184 22.0045 5.00184C21.7963 5.00184 21.6119 5.08186 21.4517 5.2424L12.0001 14.6934L2.54901 5.24266C2.38872 5.08211 2.20425 5.00209 1.99587 5.00209C1.78739 5.00209 1.60293 5.08211 1.44272 5.24266L0.240565 6.44498C0.0800199 6.60519 0 6.78965 0 6.99813C0 7.20643 0.0802726 7.3909 0.240565 7.55111L11.447 18.7578C11.6072 18.9181 11.7917 18.9982 12.0001 18.9982C12.2085 18.9982 12.3927 18.9181 12.5529 18.7578L23.7602 7.55111C23.9204 7.39081 24 7.20635 24 6.99813C24 6.78965 23.9204 6.60519 23.7602 6.44464Z" fill="#444444"/>
</svg>
