<svg width="23" height="22" viewBox="0 0 23 22" fill="none" xmlns="http://www.w3.org/2000/svg">
<path d="M7.1 17.6C5.89 17.6 4.9 18.59 4.9 19.8C4.9 21.01 5.89 22 7.1 22C8.31 22 9.3 21.01 9.3 19.8C9.3 18.59 8.31 17.6 7.1 17.6ZM0.5 0V2.2H2.7L6.66 10.56L5.12 13.2C5.01 13.53 4.9 13.97 4.9 14.3C4.9 15.51 5.89 16.5 7.1 16.5H20.3V14.3H7.54C7.43 14.3 7.32 14.19 7.32 14.08V13.97L8.31 12.1H16.45C17.33 12.1 17.99 11.66 18.32 11L22.28 3.85C22.5 3.63 22.5 3.52 22.5 3.3C22.5 2.64 22.06 2.2 21.4 2.2H5.12L4.13 0H0.5ZM18.1 17.6C16.89 17.6 15.9 18.59 15.9 19.8C15.9 21.01 16.89 22 18.1 22C19.31 22 20.3 21.01 20.3 19.8C20.3 18.59 19.31 17.6 18.1 17.6Z" fill="#D40A59"/>
</svg>
