<svg width="30" height="24" viewBox="0 0 30 24" fill="none" xmlns="http://www.w3.org/2000/svg">
    <path d="M24.6262 2.58588C22.7444 1.70542 20.7322 1.06553 18.6286 0.701172C18.3702 1.16827 18.0684 1.79652 17.8603 2.29629C15.6241 1.95999 13.4084 1.95999 11.2133 2.29629C11.0052 1.79652 10.6965 1.16827 10.4359 0.701172C8.32993 1.06553 6.31547 1.70777 4.43362 2.59055C0.637927 8.32634 -0.391024 13.9197 0.123452 19.4336C2.64096 21.3136 5.08072 22.4556 7.47931 23.203C8.07154 22.3879 8.59973 21.5214 9.05474 20.6083C8.18814 20.279 7.35813 19.8726 6.57386 19.4009C6.78192 19.2467 6.98544 19.0856 7.18207 18.9198C11.9655 21.1571 17.1629 21.1571 21.8892 18.9198C22.0882 19.0856 22.2917 19.2467 22.4974 19.4009C21.7109 19.875 20.8786 20.2813 20.012 20.6106C20.467 21.5214 20.9929 22.3902 21.5874 23.2053C23.9883 22.4579 26.4303 21.3159 28.9478 19.4336C29.5515 13.0415 27.9166 7.49959 24.6262 2.58588ZM9.70643 16.0426C8.27048 16.0426 7.09288 14.702 7.09288 13.0696C7.09288 11.4371 8.24533 10.0943 9.70643 10.0943C11.1676 10.0943 12.3451 11.4348 12.32 13.0696C12.3222 14.702 11.1676 16.0426 9.70643 16.0426ZM19.3649 16.0426C17.9289 16.0426 16.7513 14.702 16.7513 13.0696C16.7513 11.4371 17.9037 10.0943 19.3649 10.0943C20.826 10.0943 22.0036 11.4348 21.9784 13.0696C21.9784 14.702 20.826 16.0426 19.3649 16.0426Z" fill="white"/>
</svg>
