<svg width="82" height="34" viewBox="0 0 82 34" fill="none" xmlns="http://www.w3.org/2000/svg">
<path d="M0 10.5474C0 9.90656 0.499021 9.38708 1.11459 9.38708C1.73017 9.38708 2.22919 9.90656 2.22919 10.5474V23.0205C2.22919 23.6613 1.73017 24.1808 1.11459 24.1808C0.499021 24.1808 0 23.6613 0 23.0205V10.5474Z" fill="white"/>
<path d="M0 10.5474C0 9.90656 0.499021 9.38708 1.11459 9.38708C1.73017 9.38708 2.22919 9.90656 2.22919 10.5474V23.0205C2.22919 23.6613 1.73017 24.1808 1.11459 24.1808C0.499021 24.1808 0 23.6613 0 23.0205V10.5474Z" fill="url(#paint0_linear_237_2579)"/>
<path d="M11.957 10.5474C11.957 9.90656 12.4561 9.38708 13.0716 9.38708C13.6872 9.38708 14.1862 9.90656 14.1862 10.5474V23.0205C14.1862 23.6613 13.6872 24.1808 13.0716 24.1808C12.4561 24.1808 11.957 23.6613 11.957 23.0205V10.5474Z" fill="white"/>
<path d="M11.957 10.5474C11.957 9.90656 12.4561 9.38708 13.0716 9.38708C13.6872 9.38708 14.1862 9.90656 14.1862 10.5474V23.0205C14.1862 23.6613 13.6872 24.1808 13.0716 24.1808C12.4561 24.1808 11.957 23.6613 11.957 23.0205V10.5474Z" fill="url(#paint1_linear_237_2579)"/>
<path d="M29.791 10.5474C29.791 9.90656 30.29 9.38708 30.9056 9.38708C31.5212 9.38708 32.0202 9.90656 32.0202 10.5474V23.0205C32.0202 23.6613 31.5212 24.1808 30.9056 24.1808C30.29 24.1808 29.791 23.6613 29.791 23.0205V10.5474Z" fill="white"/>
<path d="M29.791 10.5474C29.791 9.90656 30.29 9.38708 30.9056 9.38708C31.5212 9.38708 32.0202 9.90656 32.0202 10.5474V23.0205C32.0202 23.6613 31.5212 24.1808 30.9056 24.1808C30.29 24.1808 29.791 23.6613 29.791 23.0205V10.5474Z" fill="url(#paint2_linear_237_2579)"/>
<path d="M23.7109 6.29799C23.7109 5.65367 24.2553 5.13135 24.9269 5.13135C25.5984 5.13135 26.1428 5.65367 26.1428 6.29799V27.4725C26.1428 28.1168 25.5984 28.6391 24.9269 28.6391C24.2553 28.6391 23.7109 28.1168 23.7109 27.4725V6.29799Z" fill="white"/>
<path d="M23.7109 6.29799C23.7109 5.65367 24.2553 5.13135 24.9269 5.13135C25.5984 5.13135 26.1428 5.65367 26.1428 6.29799V27.4725C26.1428 28.1168 25.5984 28.6391 24.9269 28.6391C24.2553 28.6391 23.7109 28.1168 23.7109 27.4725V6.29799Z" fill="url(#paint3_linear_237_2579)"/>
<path d="M5.87695 6.29799C5.87695 5.65367 6.42134 5.13135 7.09287 5.13135C7.76441 5.13135 8.30879 5.65367 8.30879 6.29799V27.4725C8.30879 28.1168 7.76441 28.6391 7.09287 28.6391C6.42134 28.6391 5.87695 28.1168 5.87695 27.4725V6.29799Z" fill="white"/>
<path d="M5.87695 6.29799C5.87695 5.65367 6.42134 5.13135 7.09287 5.13135C7.76441 5.13135 8.30879 5.65367 8.30879 6.29799V27.4725C8.30879 28.1168 7.76441 28.6391 7.09287 28.6391C6.42134 28.6391 5.87695 28.1168 5.87695 27.4725V6.29799Z" fill="url(#paint4_linear_237_2579)"/>
<path d="M17.834 2.03995C17.834 1.3969 18.333 0.87561 18.9486 0.87561C19.5642 0.87561 20.0632 1.3969 20.0632 2.03995V31.7305C20.0632 32.3736 19.5642 32.8948 18.9486 32.8948C18.333 32.8948 17.834 32.3736 17.834 31.7305V2.03995Z" fill="white"/>
<path d="M17.834 2.03995C17.834 1.3969 18.333 0.87561 18.9486 0.87561C19.5642 0.87561 20.0632 1.3969 20.0632 2.03995V31.7305C20.0632 32.3736 19.5642 32.8948 18.9486 32.8948C18.333 32.8948 17.834 32.3736 17.834 31.7305V2.03995Z" fill="url(#paint5_linear_237_2579)"/>
<path d="M40.6992 15.019V0.640378H44.0683C45.1579 0.640378 45.9734 0.954556 46.5149 1.58291C47.0563 2.20458 47.327 3.08362 47.327 4.22V11.4695C47.327 12.5992 47.0563 13.4749 46.5149 14.0966C45.9734 14.7116 45.1579 15.019 44.0683 15.019H40.6992ZM42.3035 13.5651H44.0482C45.1846 13.5651 45.7528 12.8866 45.7528 11.5297V4.13979C45.7528 2.78281 45.1779 2.10431 44.0282 2.10431H42.3035V13.5651Z" fill="white"/>
<path d="M48.8411 15.019V0.640378H50.4454V15.019H48.8411Z" fill="white"/>
<path d="M51.9695 11.5497V4.11974C51.9695 2.99671 52.2369 2.11434 52.7717 1.47262C53.3131 0.824205 54.1186 0.5 55.1882 0.5C56.2644 0.5 57.0733 0.824205 57.6147 1.47262C58.1629 2.11434 58.4369 2.99671 58.4369 4.11974V5.41321H56.9128V4.02949C56.9128 2.64577 56.3513 1.95391 55.2283 1.95391C54.6668 1.95391 54.2456 2.1344 53.9649 2.49537C53.6841 2.85634 53.5438 3.36771 53.5438 4.02949V11.6299C53.5438 12.2917 53.6841 12.8031 53.9649 13.1641C54.2456 13.525 54.6668 13.7055 55.2283 13.7055C56.3513 13.7055 56.9128 13.0137 56.9128 11.6299V9.76492H58.4369V11.5497C58.4369 12.6727 58.1629 13.5551 57.6147 14.1968C57.0733 14.8386 56.2644 15.1594 55.1882 15.1594C54.1186 15.1594 53.3131 14.8386 52.7717 14.1968C52.2369 13.5551 51.9695 12.6727 51.9695 11.5497Z" fill="white"/>
<path d="M59.3193 2.10431V0.640378H66.1978V2.10431H63.5406V15.019H61.9664V2.10431H59.3193Z" fill="white"/>
<path d="M67.1704 11.5497V4.11974C67.1704 2.99003 67.4478 2.10431 68.0026 1.46259C68.5575 0.820863 69.373 0.5 70.4492 0.5C71.5321 0.5 72.3543 0.820863 72.9159 1.46259C73.4774 2.10431 73.7581 2.99003 73.7581 4.11974V11.5497C73.7581 12.6661 73.4774 13.5484 72.9159 14.1968C72.3543 14.8386 71.5321 15.1594 70.4492 15.1594C69.3797 15.1594 68.5642 14.8386 68.0026 14.1968C67.4478 13.5484 67.1704 12.6661 67.1704 11.5497ZM68.7446 11.6299C68.7446 12.2984 68.885 12.8131 69.1658 13.1741C69.4532 13.5284 69.881 13.7055 70.4492 13.7055C71.5856 13.7055 72.1538 13.0137 72.1538 11.6299V4.02949C72.1538 3.36771 72.0134 2.85634 71.7327 2.49537C71.4519 2.1344 71.0241 1.95391 70.4492 1.95391C69.881 1.95391 69.4532 2.1344 69.1658 2.49537C68.885 2.85634 68.7446 3.36771 68.7446 4.02949V11.6299Z" fill="white"/>
<path d="M75.2722 15.019V0.640378H78.4708C79.5805 0.640378 80.3926 0.91779 80.9074 1.47262C81.4221 2.02076 81.6794 2.83963 81.6794 3.92922V5.10238C81.6794 6.70001 81.0845 7.68599 79.8946 8.06033C80.5297 8.2475 80.9876 8.5951 81.2683 9.10314C81.5558 9.60449 81.6995 10.2562 81.6995 11.0584V13.2944C81.6995 14.0899 81.7964 14.6648 81.9903 15.019H80.3659C80.1854 14.6046 80.0952 14.023 80.0952 13.2744V11.0183C80.0952 10.2362 79.9214 9.6847 79.5738 9.36384C79.2262 9.04298 78.7014 8.88254 77.9995 8.88254H76.8765V15.019H75.2722ZM76.8765 7.41861H78.0597C78.7415 7.41861 79.2496 7.27823 79.5838 6.99747C79.9247 6.71003 80.0952 6.19532 80.0952 5.45332V4.0696C80.0952 3.40782 79.9615 2.9165 79.6941 2.59564C79.4334 2.26809 79.0123 2.10431 78.4307 2.10431H76.8765V7.41861Z" fill="white"/>
<path d="M40.6992 32.8948V18.5161H44.0683C45.1579 18.5161 45.9734 18.8303 46.5149 19.4587C47.0563 20.0804 47.327 20.9594 47.327 22.0958V29.3453C47.327 30.475 47.0563 31.3507 46.5149 31.9723C45.9734 32.5873 45.1579 32.8948 44.0683 32.8948H40.6992ZM42.3035 31.4409H44.0482C45.1846 31.4409 45.7528 30.7624 45.7528 29.4054V22.0156C45.7528 20.6586 45.1779 19.9801 44.0282 19.9801H42.3035V31.4409Z" fill="white"/>
<path d="M48.8411 32.8948V18.5161H50.4454V32.8948H48.8411Z" fill="white"/>
<path d="M51.6787 32.8948L54.4261 18.5161H56.7524L59.4998 32.8948H57.9055L57.344 29.997H53.7142L53.1527 32.8948H51.6787ZM53.9148 28.6233H57.1234L55.499 20.331L53.9148 28.6233Z" fill="white"/>
<path d="M60.7531 32.8948V18.5161H62.3575V31.4409H66.4585V32.8948H60.7531Z" fill="white"/>
<path d="M67.5514 29.4255V21.9955C67.5514 20.8658 67.8288 19.9801 68.3837 19.3384C68.9385 18.6966 69.754 18.3758 70.8302 18.3758C71.9132 18.3758 72.7354 18.6966 73.2969 19.3384C73.8584 19.9801 74.1391 20.8658 74.1391 21.9955V29.4255C74.1391 30.5418 73.8584 31.4242 73.2969 32.0726C72.7354 32.7143 71.9132 33.0352 70.8302 33.0352C69.7607 33.0352 68.9452 32.7143 68.3837 32.0726C67.8288 31.4242 67.5514 30.5418 67.5514 29.4255ZM69.1257 29.5057C69.1257 30.1742 69.266 30.6889 69.5468 31.0499C69.8342 31.4041 70.2621 31.5813 70.8302 31.5813C71.9666 31.5813 72.5348 30.8894 72.5348 29.5057V21.9053C72.5348 21.2435 72.3945 20.7321 72.1137 20.3711C71.8329 20.0102 71.4051 19.8297 70.8302 19.8297C70.2621 19.8297 69.8342 20.0102 69.5468 20.3711C69.266 20.7321 69.1257 21.2435 69.1257 21.9053V29.5057Z" fill="white"/>
<path d="M75.5329 29.4255V21.9955C75.5329 20.8725 75.8003 19.9901 76.3351 19.3484C76.8765 18.7 77.682 18.3758 78.7516 18.3758C79.8278 18.3758 80.6366 18.7 81.1781 19.3484C81.7262 19.9901 82.0003 20.8725 82.0003 21.9955V23.2188H80.4762V21.9053C80.4762 20.5215 79.9147 19.8297 78.7917 19.8297C78.2302 19.8297 77.809 20.0102 77.5283 20.3711C77.2475 20.7321 77.1071 21.2435 77.1071 21.9053V29.5057C77.1071 30.1675 77.2475 30.6789 77.5283 31.0398C77.809 31.4008 78.2302 31.5813 78.7917 31.5813C79.9147 31.5813 80.4762 30.8894 80.4762 29.5057V26.628H79.0022V25.1941H82.0003V29.4255C82.0003 30.5485 81.7262 31.4309 81.1781 32.0726C80.6366 32.7143 79.8278 33.0352 78.7516 33.0352C77.682 33.0352 76.8765 32.7143 76.3351 32.0726C75.8003 31.4309 75.5329 30.5485 75.5329 29.4255Z" fill="white"/>
<defs>
<linearGradient id="paint0_linear_237_2579" x1="2.12291" y1="9.9047" x2="-0.318159" y2="10.0031" gradientUnits="userSpaceOnUse">
<stop stop-color="#CE035A"/>
<stop offset="1" stop-color="#FD3950"/>
</linearGradient>
<linearGradient id="paint1_linear_237_2579" x1="14.0799" y1="9.9047" x2="11.6389" y2="10.0031" gradientUnits="userSpaceOnUse">
<stop stop-color="#CE035A"/>
<stop offset="1" stop-color="#FD3950"/>
</linearGradient>
<linearGradient id="paint2_linear_237_2579" x1="31.9139" y1="9.9047" x2="29.4729" y2="10.0031" gradientUnits="userSpaceOnUse">
<stop stop-color="#CE035A"/>
<stop offset="1" stop-color="#FD3950"/>
</linearGradient>
<linearGradient id="paint3_linear_237_2579" x1="26.0268" y1="5.95385" x2="23.3616" y2="6.02759" gradientUnits="userSpaceOnUse">
<stop stop-color="#CE035A"/>
<stop offset="1" stop-color="#FD3950"/>
</linearGradient>
<linearGradient id="paint4_linear_237_2579" x1="8.19285" y1="5.95385" x2="5.52759" y2="6.02759" gradientUnits="userSpaceOnUse">
<stop stop-color="#CE035A"/>
<stop offset="1" stop-color="#FD3950"/>
</linearGradient>
<linearGradient id="paint5_linear_237_2579" x1="19.9569" y1="1.99592" x2="17.5127" y2="2.04143" gradientUnits="userSpaceOnUse">
<stop stop-color="#CE035A"/>
<stop offset="1" stop-color="#FD3950"/>
</linearGradient>
</defs>
</svg>
