<svg width="71" height="71" viewBox="0 0 71 71" fill="none" xmlns="http://www.w3.org/2000/svg">
    <path d="M0 21.4451C0 20.0242 1.1065 18.8723 2.47144 18.8723V18.8723C3.83639 18.8723 4.94289 20.0242 4.94289 21.4451V49.1024C4.94289 50.5233 3.83639 51.6751 2.47144 51.6751V51.6751C1.1065 51.6751 0 50.5233 0 49.1024V21.4451Z" fill="#EBEBEB"/>
    <path d="M0 21.4451C0 20.0242 1.1065 18.8723 2.47144 18.8723V18.8723C3.83639 18.8723 4.94289 20.0242 4.94289 21.4451V49.1024C4.94289 50.5233 3.83639 51.6751 2.47144 51.6751V51.6751C1.1065 51.6751 0 50.5233 0 49.1024V21.4451Z" fill="url(#paint0_linear_189_3038)"/>
    <path d="M26.5137 21.4453C26.5137 20.0244 27.6202 18.8726 28.9851 18.8726V18.8726C30.3501 18.8726 31.4566 20.0244 31.4566 21.4453V49.1026C31.4566 50.5235 30.3501 51.6754 28.9851 51.6754V51.6754C27.6202 51.6754 26.5137 50.5235 26.5137 49.1026V21.4453Z" fill="#EBEBEB"/>
    <path d="M26.5137 21.4453C26.5137 20.0244 27.6202 18.8726 28.9851 18.8726V18.8726C30.3501 18.8726 31.4566 20.0244 31.4566 21.4453V49.1026C31.4566 50.5235 30.3501 51.6754 28.9851 51.6754V51.6754C27.6202 51.6754 26.5137 50.5235 26.5137 49.1026V21.4453Z" fill="url(#paint1_linear_189_3038)"/>
    <path d="M66.0566 21.4453C66.0566 20.0244 67.1631 18.8726 68.5281 18.8726V18.8726C69.893 18.8726 70.9995 20.0244 70.9995 21.4453V49.1026C70.9995 50.5235 69.893 51.6754 68.5281 51.6754V51.6754C67.1631 51.6754 66.0566 50.5235 66.0566 49.1026V21.4453Z" fill="#EBEBEB"/>
    <path d="M66.0566 21.4453C66.0566 20.0244 67.1631 18.8726 68.5281 18.8726V18.8726C69.893 18.8726 70.9995 20.0244 70.9995 21.4453V49.1026C70.9995 50.5235 69.893 51.6754 68.5281 51.6754V51.6754C67.1631 51.6754 66.0566 50.5235 66.0566 49.1026V21.4453Z" fill="url(#paint2_linear_189_3038)"/>
    <path d="M52.5762 12.0234C52.5762 10.5947 53.7833 9.43652 55.2723 9.43652V9.43652C56.7613 9.43652 57.9684 10.5947 57.9684 12.0234V58.9747C57.9684 60.4034 56.7613 61.5615 55.2723 61.5615V61.5615C53.7833 61.5615 52.5762 60.4034 52.5762 58.9747V12.0234Z" fill="#EBEBEB"/>
    <path d="M52.5762 12.0234C52.5762 10.5947 53.7833 9.43652 55.2723 9.43652V9.43652C56.7613 9.43652 57.9684 10.5947 57.9684 12.0234V58.9747C57.9684 60.4034 56.7613 61.5615 55.2723 61.5615V61.5615C53.7833 61.5615 52.5762 60.4034 52.5762 58.9747V12.0234Z" fill="url(#paint3_linear_189_3038)"/>
    <path d="M13.0312 12.0235C13.0312 10.5948 14.2383 9.43665 15.7274 9.43665V9.43665C17.2164 9.43665 18.4235 10.5948 18.4235 12.0235V58.9748C18.4235 60.4035 17.2164 61.5617 15.7274 61.5617V61.5617C14.2383 61.5617 13.0312 60.4035 13.0312 58.9748V12.0235Z" fill="#EBEBEB"/>
    <path d="M13.0312 12.0235C13.0312 10.5948 14.2383 9.43665 15.7274 9.43665V9.43665C17.2164 9.43665 18.4235 10.5948 18.4235 12.0235V58.9748C18.4235 60.4035 17.2164 61.5617 15.7274 61.5617V61.5617C14.2383 61.5617 13.0312 60.4035 13.0312 58.9748V12.0235Z" fill="url(#paint4_linear_189_3038)"/>
    <path d="M39.5449 2.58174C39.5449 1.15589 40.6514 0 42.0164 0V0C43.3813 0 44.4878 1.15588 44.4878 2.58174V68.4161C44.4878 69.842 43.3813 70.9979 42.0164 70.9979V70.9979C40.6514 70.9979 39.5449 69.842 39.5449 68.4161V2.58174Z" fill="#EBEBEB"/>
    <path d="M39.5449 2.58174C39.5449 1.15589 40.6514 0 42.0164 0V0C43.3813 0 44.4878 1.15588 44.4878 2.58174V68.4161C44.4878 69.842 43.3813 70.9979 42.0164 70.9979V70.9979C40.6514 70.9979 39.5449 69.842 39.5449 68.4161V2.58174Z" fill="url(#paint5_linear_189_3038)"/>
    <defs>
        <linearGradient id="paint0_linear_189_3038" x1="4.70723" y1="20.02" x2="-0.70547" y2="20.2382" gradientUnits="userSpaceOnUse">
            <stop stop-color="#CE035A"/>
            <stop offset="1" stop-color="#FD3950"/>
        </linearGradient>
        <linearGradient id="paint1_linear_189_3038" x1="31.2209" y1="20.0203" x2="25.8082" y2="20.2384" gradientUnits="userSpaceOnUse">
            <stop stop-color="#CE035A"/>
            <stop offset="1" stop-color="#FD3950"/>
        </linearGradient>
        <linearGradient id="paint2_linear_189_3038" x1="70.7639" y1="20.0203" x2="65.3512" y2="20.2384" gradientUnits="userSpaceOnUse">
            <stop stop-color="#CE035A"/>
            <stop offset="1" stop-color="#FD3950"/>
        </linearGradient>
        <linearGradient id="paint3_linear_189_3038" x1="57.7113" y1="11.2603" x2="51.8015" y2="11.4238" gradientUnits="userSpaceOnUse">
            <stop stop-color="#CE035A"/>
            <stop offset="1" stop-color="#FD3950"/>
        </linearGradient>
        <linearGradient id="paint4_linear_189_3038" x1="18.1664" y1="11.2604" x2="12.2566" y2="11.4239" gradientUnits="userSpaceOnUse">
            <stop stop-color="#CE035A"/>
            <stop offset="1" stop-color="#FD3950"/>
        </linearGradient>
        <linearGradient id="paint5_linear_189_3038" x1="44.2521" y1="2.48412" x2="38.8325" y2="2.58502" gradientUnits="userSpaceOnUse">
            <stop stop-color="#CE035A"/>
            <stop offset="1" stop-color="#FD3950"/>
        </linearGradient>
    </defs>
</svg>
