<svg width="22" height="19" viewBox="0 0 22 19" fill="none" xmlns="http://www.w3.org/2000/svg">
    <path d="M5.22461 10.8138L7.57626 17.3202C7.57626 17.3202 7.87027 17.929 8.1851 17.929C8.49993 17.929 13.1826 13.0595 13.1826 13.0595L18.3898 3.00586L5.30852 9.13432L5.22461 10.8138Z" fill="#C8DAEA"/>
    <path d="M8.34215 12.4814L7.89072 17.2766C7.89072 17.2766 7.70175 18.7459 9.17151 17.2766C10.6413 15.8073 12.0481 14.6743 12.0481 14.6743" fill="#A9C6D8"/>
    <path d="M5.26632 11.0458L0.428901 9.47033C0.428901 9.47033 -0.149224 9.23588 0.0369325 8.70422C0.0752539 8.59458 0.152557 8.50129 0.383807 8.34097C1.45565 7.59417 20.2227 0.851491 20.2227 0.851491C20.2227 0.851491 20.7526 0.673005 21.0651 0.791721C21.1425 0.815643 21.212 0.859665 21.2667 0.919282C21.3214 0.978899 21.3593 1.05197 21.3765 1.13103C21.4103 1.27066 21.4244 1.41431 21.4185 1.55784C21.417 1.682 21.4019 1.79709 21.3905 1.97755C21.2762 3.82103 17.8557 17.5795 17.8557 17.5795C17.8557 17.5795 17.6511 18.3846 16.9178 18.4121C16.7376 18.418 16.5581 18.3874 16.39 18.3224C16.2218 18.2574 16.0685 18.1592 15.9392 18.0337C14.5003 16.7965 9.52709 13.4556 8.42816 12.7209C8.40337 12.704 8.3825 12.682 8.36694 12.6564C8.35138 12.6307 8.34151 12.6021 8.33797 12.5723C8.32261 12.4949 8.40685 12.3989 8.40685 12.3989C8.40685 12.3989 17.0665 4.70471 17.2969 3.89698C17.3148 3.8344 17.2474 3.80353 17.1569 3.83094C16.5817 4.04245 6.6112 10.3363 5.51078 11.031C5.43157 11.0549 5.34785 11.06 5.26632 11.0458Z" fill="white"/>
</svg>
